<svg preserveAspectRatio="none" width="100%" height="100%" overflow="visible" style="display: block;" viewBox="0 0 20 20" fill="none" xmlns="http://www.w3.org/2000/svg">
<g id="ri:guide-line">
<path id="Vector" d="M10.8333 6.66667V13.3333C10.8333 13.9964 10.5699 14.6323 10.1011 15.1011C9.63226 15.5699 8.99637 15.8333 8.33333 15.8333H6.525C6.32841 16.3896 5.9415 16.8584 5.43266 17.157C4.92382 17.4555 4.32581 17.5646 3.74434 17.4648C3.16287 17.3651 2.63538 17.063 2.25511 16.612C1.87483 16.1609 1.66626 15.59 1.66626 15C1.66626 14.41 1.87483 13.8391 2.25511 13.388C2.63538 12.937 3.16287 12.6349 3.74434 12.5352C4.32581 12.4354 4.92382 12.5445 5.43266 12.843C5.9415 13.1416 6.32841 13.6104 6.525 14.1667H8.33333C8.55435 14.1667 8.76631 14.0789 8.92259 13.9226C9.07887 13.7663 9.16667 13.5543 9.16667 13.3333V6.66667C9.16667 6.00363 9.43006 5.36774 9.8989 4.8989C10.3677 4.43006 11.0036 4.16667 11.6667 4.16667H14.1667V1.66667L18.3333 5L14.1667 8.33333V5.83333H11.6667C11.4457 5.83333 11.2337 5.92113 11.0774 6.07741C10.9211 6.23369 10.8333 6.44565 10.8333 6.66667ZM4.16667 15.8333C4.38768 15.8333 4.59964 15.7455 4.75592 15.5893C4.9122 15.433 5 15.221 5 15C5 14.779 4.9122 14.567 4.75592 14.4107C4.59964 14.2545 4.38768 14.1667 4.16667 14.1667C3.94565 14.1667 3.73369 14.2545 3.57741 14.4107C3.42113 14.567 3.33333 14.779 3.33333 15C3.33333 15.221 3.42113 15.433 3.57741 15.5893C3.73369 15.7455 3.94565 15.8333 4.16667 15.8333Z" fill="var(--fill-0, #1F1F1F)"/>
</g>
</svg>
