<svg preserveAspectRatio="none" width="100%" height="100%" overflow="visible" style="display: block;" viewBox="0 0 20 21" fill="none" xmlns="http://www.w3.org/2000/svg">
<path id="Vector" d="M18.9485 10.5012H16.8434C16.5643 10.5012 16.2966 10.6118 16.0992 10.8087C15.9018 11.0056 15.7909 11.2727 15.7909 11.5511C15.7909 11.8295 15.9018 12.0966 16.0992 12.2935C16.2966 12.4904 16.5643 12.601 16.8434 12.601V14.7007H15.5951C15.7195 14.3644 15.7853 14.0093 15.7899 13.6509C15.7898 12.9575 15.5605 12.2836 15.1373 11.7336C14.7142 11.1835 14.1209 10.7881 13.4495 10.6087C12.7781 10.4292 12.0661 10.4758 11.424 10.7411C10.7818 11.0064 10.2453 11.4756 9.89776 12.076C9.82756 12.1955 9.78174 12.3276 9.76294 12.4648C9.74413 12.602 9.75272 12.7415 9.7882 12.8754C9.82368 13.0092 9.88535 13.1348 9.96967 13.2447C10.054 13.3547 10.1593 13.447 10.2795 13.5162C10.3997 13.5855 10.5325 13.6303 10.6701 13.6481C10.8078 13.666 10.9476 13.6565 11.0815 13.6202C11.2155 13.5839 11.3409 13.5216 11.4506 13.4367C11.5604 13.3519 11.6521 13.2463 11.7208 13.1259C11.8131 12.9663 11.946 12.8338 12.106 12.7416C12.266 12.6495 12.4475 12.601 12.6323 12.601C12.9114 12.601 13.1791 12.7116 13.3765 12.9085C13.5739 13.1054 13.6848 13.3724 13.6848 13.6509C13.6848 13.9293 13.5739 14.1963 13.3765 14.3932C13.1791 14.5901 12.9114 14.7007 12.6323 14.7007C12.3531 14.7007 12.0854 14.8113 11.888 15.0082C11.6906 15.2051 11.5797 15.4722 11.5797 15.7506C11.5797 16.0291 11.6906 16.2961 11.888 16.493C12.0854 16.6899 12.3531 16.8005 12.6323 16.8005C12.9114 16.8005 13.1791 16.9111 13.3765 17.108C13.5739 17.3049 13.6848 17.5719 13.6848 17.8504C13.6848 18.1288 13.5739 18.3959 13.3765 18.5927C13.1791 18.7896 12.9114 18.9002 12.6323 18.9002C12.4475 18.9002 12.266 18.8517 12.106 18.7596C11.946 18.6674 11.8131 18.5349 11.7208 18.3753C11.6521 18.2549 11.5604 18.1493 11.4506 18.0645C11.3409 17.9796 11.2155 17.9173 11.0815 17.881C10.9476 17.8447 10.8078 17.8352 10.6701 17.8531C10.5325 17.8709 10.3997 17.9158 10.2795 17.985C10.1593 18.0542 10.054 18.1465 9.96967 18.2565C9.88535 18.3665 9.82368 18.492 9.7882 18.6259C9.75272 18.7597 9.74413 18.8993 9.76294 19.0364C9.78174 19.1736 9.82756 19.3057 9.89776 19.4252C10.2453 20.0256 10.7818 20.4948 11.424 20.7601C12.0661 21.0254 12.7781 21.072 13.4495 20.8925C14.1209 20.7131 14.7142 20.3177 15.1373 19.7677C15.5605 19.2176 15.7898 18.5437 15.7899 17.8504C15.7853 17.4919 15.7195 17.1368 15.5951 16.8005H16.8424V19.9501C16.8424 20.2286 16.9533 20.4956 17.1507 20.6925C17.3481 20.8894 17.6158 21 17.8949 21C18.1741 21 18.4418 20.8894 18.6392 20.6925C18.8366 20.4956 18.9475 20.2286 18.9475 19.9501V12.601C19.2266 12.601 19.4943 12.4904 19.6917 12.2935C19.8891 12.0966 20 11.8295 20 11.5511C20 11.2727 19.8891 11.0056 19.6917 10.8087C19.4943 10.6118 19.2277 10.5012 18.9485 10.5012ZM6.34862 9.70646C6.38139 9.84105 6.44055 9.96784 6.52267 10.0795C6.60479 10.1912 6.70825 10.2856 6.82709 10.3572C6.94594 10.4288 7.07782 10.4763 7.21513 10.4969C7.35245 10.5174 7.49248 10.5107 7.62717 10.477C7.76187 10.4434 7.88855 10.3835 7.99993 10.3008C8.11131 10.218 8.20518 10.1142 8.27613 9.99512C8.34709 9.87606 8.39373 9.74418 8.41336 9.60707C8.43299 9.46996 8.42524 9.33033 8.39053 9.19622L6.54123 1.81558C6.41186 1.29713 6.11234 0.836757 5.69033 0.507745C5.26833 0.178733 4.74811 0 4.21249 0C3.67688 0 3.15666 0.178733 2.73465 0.507745C2.31265 0.836757 2.01312 1.29713 1.88376 1.81558L0.0334027 9.19622C-0.00130053 9.33033 -0.00905852 9.46996 0.0105759 9.60707C0.0302103 9.74418 0.0768488 9.87606 0.147805 9.99512C0.218761 10.1142 0.312632 10.218 0.42401 10.3008C0.535388 10.3835 0.662072 10.4434 0.796763 10.477C0.931454 10.5107 1.07149 10.5174 1.20881 10.4969C1.34612 10.4763 1.478 10.4288 1.59684 10.3572C1.71569 10.2856 1.81915 10.1912 1.90127 10.0795C1.98339 9.96784 2.04254 9.84105 2.07532 9.70646L2.66474 7.35159H5.75919L6.34862 9.70646ZM3.19206 5.25183L3.92568 2.32582C3.9478 2.26767 3.98714 2.21761 4.03846 2.18228C4.08978 2.14695 4.15067 2.12803 4.21302 2.12803C4.27538 2.12803 4.33626 2.14695 4.38758 2.18228C4.4389 2.21761 4.47824 2.26767 4.50036 2.32582L5.23398 5.25183H3.19206ZM11.5808 5.25183H12.6333C12.9125 5.25183 13.1802 5.36244 13.3776 5.55933C13.5749 5.75622 13.6858 6.02326 13.6858 6.30171V7.35159C13.6858 7.63003 13.7967 7.89707 13.9941 8.09396C14.1915 8.29085 14.4592 8.40146 14.7384 8.40146C15.0175 8.40146 15.2852 8.29085 15.4826 8.09396C15.68 7.89707 15.7909 7.63003 15.7909 7.35159V6.30171C15.7901 5.46663 15.4571 4.66599 14.8651 4.0755C14.2732 3.48501 13.4705 3.15291 12.6333 3.15207H11.5808C11.3016 3.15207 11.0339 3.26269 10.8365 3.45958C10.6391 3.65647 10.5282 3.92351 10.5282 4.20195C10.5282 4.4804 10.6391 4.74744 10.8365 4.94433C11.0339 5.14122 11.3016 5.25183 11.5808 5.25183ZM7.37063 14.7007H6.31809C6.03894 14.7007 5.77123 14.5901 5.57384 14.3932C5.37645 14.1963 5.26556 13.9293 5.26556 13.6509V12.601C5.26556 12.3225 5.15466 12.0555 4.95728 11.8586C4.75989 11.6617 4.49217 11.5511 4.21302 11.5511C3.93387 11.5511 3.66615 11.6617 3.46877 11.8586C3.27138 12.0555 3.16049 12.3225 3.16049 12.601V13.6509C3.16132 14.4859 3.49427 15.2866 4.08625 15.8771C4.67824 16.4676 5.4809 16.7997 6.31809 16.8005H7.37063C7.64978 16.8005 7.91749 16.6899 8.11488 16.493C8.31227 16.2961 8.42316 16.0291 8.42316 15.7506C8.42316 15.4722 8.31227 15.2051 8.11488 15.0082C7.91749 14.8113 7.64978 14.7007 7.37063 14.7007Z" fill="var(--fill-0, #1F1F1F)"/>
</svg>
