<svg preserveAspectRatio="none" width="100%" height="100%" overflow="visible" style="display: block;" viewBox="0 0 20 20" fill="none" xmlns="http://www.w3.org/2000/svg">
<g id="Group">
<path id="Vector" d="M12.5 0V6.75125C13.0709 7.07997 13.5452 7.55334 13.8749 8.12369C14.2046 8.69403 14.3783 9.3412 14.3783 10C14.3783 10.6588 14.2046 11.306 13.8749 11.8763C13.5452 12.4467 13.0709 12.92 12.5 13.2487V20L5.83375 15H0V5H5.83375L12.5 0ZM10 5L6.66625 7.5H2.5V12.5H6.66625L10 15V5Z" fill="var(--fill-0, #1F1F1F)"/>
<path id="Vector_2" d="M17 4L16.0012 3.25L14.5 5.24875L15.5 5.99875C15.8792 6.28379 16.2159 6.62134 16.5 7.00125C17.1287 7.83625 17.5 8.8725 17.5 10C17.5 11.1275 17.1287 12.1625 16.5 13C16.2157 13.379 15.879 13.7157 15.5 14L14.5 14.7513L16.0012 16.7513L17.0012 16C17.5689 15.5734 18.0731 15.0684 18.4987 14.5C19.4745 13.2028 20.0014 11.6232 20 10C20 8.3125 19.4412 6.7525 18.5 5.5C18.0736 4.93146 17.5685 4.42641 17 4Z" fill="var(--fill-0, #1F1F1F)"/>
</g>
</svg>
