<svg preserveAspectRatio="none" width="100%" height="100%" overflow="visible" style="display: block;" viewBox="0 0 45 45" fill="none" xmlns="http://www.w3.org/2000/svg">
<g id="Vector">
<path d="M15.4799 1.44536L15.7009 1.37281L15.903 1.30972C16.2186 1.21508 16.5154 1.12675 16.8279 1.04473C20.894 -0.0258128 25.1807 0.0793801 29.1894 1.34806C33.198 2.61674 36.7638 4.99676 39.4718 8.21125C42.1799 11.4257 43.919 15.3426 44.4868 19.5061C45.0546 23.6695 44.4277 27.9086 42.6791 31.73C42.6627 31.7686 42.6617 31.812 42.6764 31.8514C42.6911 31.8907 42.7203 31.9229 42.758 31.9413C42.7961 31.9584 42.8394 31.9597 42.8785 31.9449C42.9175 31.9301 42.9491 31.9005 42.9663 31.8625C44.7365 27.9864 45.3698 23.6879 44.7925 19.4664C44.2153 15.245 42.4512 11.2738 39.7053 8.01444C36.9594 4.75503 33.3443 2.34115 29.2802 1.05324C25.216 -0.234671 20.8695 -0.343731 16.7458 0.738726C16.4301 0.823902 16.1145 0.912227 15.7988 1.01002L15.5936 1.07312L15.3695 1.14883C15.3476 1.15346 15.3271 1.16267 15.3091 1.17583C15.2911 1.189 15.2761 1.20583 15.265 1.22521C15.254 1.24459 15.2472 1.26608 15.2451 1.28827C15.243 1.31046 15.2457 1.33284 15.2529 1.35394C15.2601 1.37504 15.2716 1.39439 15.2868 1.41069C15.3021 1.42699 15.3206 1.43988 15.3411 1.44852C15.3617 1.45716 15.3838 1.46134 15.4061 1.4608C15.4284 1.46025 15.4504 1.45499 15.4705 1.44536H15.4799Z" fill="var(--fill-0, #112949)"/>
<path d="M35.1848 40.6923C30.8067 43.7292 25.4812 45.0905 20.1816 44.5273C14.882 43.9642 9.96206 41.5142 6.32088 37.6252C2.6797 33.7362 0.560382 28.6678 0.350192 23.3461C0.140002 18.0244 1.85297 12.8048 5.1761 8.64111C5.42549 8.32565 5.6875 8.01019 5.95583 7.71996C5.98388 7.68859 5.99831 7.64736 5.99594 7.60536C5.99357 7.56335 5.9746 7.524 5.9432 7.49598C5.91181 7.46795 5.87056 7.45353 5.82852 7.4559C5.78649 7.45826 5.74712 7.47722 5.71907 7.5086C5.44759 7.82406 5.18557 8.13953 4.92987 8.45499C1.55065 12.678 -0.193398 17.976 0.017044 23.3791C0.227486 28.7821 2.37834 33.9287 6.0758 37.8764C9.77325 41.8242 14.7699 44.309 20.151 44.876C25.532 45.4429 30.9374 44.054 35.3774 40.9636C35.3943 40.952 35.4088 40.937 35.4199 40.9197C35.431 40.9024 35.4386 40.883 35.4421 40.8627C35.4456 40.8425 35.4451 40.8217 35.4405 40.8016C35.4359 40.7816 35.4273 40.7627 35.4152 40.746C35.4046 40.7263 35.3899 40.7091 35.3722 40.6955C35.3544 40.6819 35.3339 40.6723 35.3121 40.6672C35.2903 40.6621 35.2677 40.6618 35.2458 40.6661C35.2238 40.6704 35.203 40.6794 35.1848 40.6923Z" fill="var(--fill-0, #112949)"/>
<path d="M10.1797 5.08267C10.8544 5.08267 11.4013 4.53608 11.4013 3.86183C11.4013 3.18757 10.8544 2.64098 10.1797 2.64098C9.50493 2.64098 8.95796 3.18757 8.95796 3.86183C8.95796 4.53608 9.50493 5.08267 10.1797 5.08267Z" fill="var(--fill-0, #112949)"/>
<path d="M13.9015 2.6883C14.3479 2.6883 14.7097 2.32673 14.7097 1.88071C14.7097 1.43469 14.3479 1.07312 13.9015 1.07312C13.4552 1.07312 13.0934 1.43469 13.0934 1.88071C13.0934 2.32673 13.4552 2.6883 13.9015 2.6883Z" fill="var(--fill-0, #112949)"/>
<path d="M6.93445 7.26253C7.38077 7.26253 7.74259 6.90096 7.74259 6.45494C7.74259 6.00893 7.38077 5.64735 6.93445 5.64735C6.48812 5.64735 6.1263 6.00893 6.1263 6.45494C6.1263 6.90096 6.48812 7.26253 6.93445 7.26253Z" fill="var(--fill-0, #112949)"/>
<path d="M40.8481 36.4493C40.7732 36.1961 40.6184 35.9739 40.4068 35.8159C40.1951 35.6578 39.938 35.5724 39.6738 35.5723C39.5585 35.5725 39.4438 35.5884 39.3329 35.6197C39.0494 35.7009 38.8049 35.8819 38.6445 36.1292C38.4841 36.3765 38.4186 36.6734 38.4602 36.9652C38.5017 37.2569 38.6475 37.5238 38.8705 37.7166C39.0936 37.9094 39.3789 38.015 39.6738 38.014C39.7903 38.014 39.9063 37.997 40.0179 37.9636C40.1721 37.919 40.316 37.8444 40.4413 37.744C40.5666 37.6437 40.6709 37.5196 40.748 37.3789C40.8252 37.2382 40.8737 37.0836 40.8909 36.9241C40.9081 36.7646 40.8935 36.6032 40.8481 36.4493Z" fill="var(--fill-0, #112949)"/>
<path d="M37.4356 39.5093C37.3907 39.3569 37.3017 39.2211 37.1797 39.1192C37.0576 39.0173 36.9082 38.9538 36.7501 38.9366C36.592 38.9195 36.4323 38.9496 36.2913 39.023C36.1503 39.0965 36.0342 39.21 35.9577 39.3493C35.8812 39.4886 35.8476 39.6475 35.8614 39.8058C35.8751 39.9641 35.9354 40.1148 36.0348 40.2389C36.1341 40.363 36.268 40.4549 36.4196 40.503C36.5711 40.5512 36.7335 40.5534 36.8863 40.5094C36.9883 40.48 37.0834 40.4308 37.1662 40.3646C37.2491 40.2983 37.318 40.2164 37.369 40.1235C37.4201 40.0305 37.4522 39.9284 37.4637 39.823C37.4751 39.7177 37.4656 39.611 37.4356 39.5093Z" fill="var(--fill-0, #112949)"/>
<path d="M42.8401 33.1653C42.7962 33.0098 42.7071 32.8708 42.5839 32.7661C42.4608 32.6614 42.3092 32.5957 42.1486 32.5773C41.9879 32.559 41.8254 32.5889 41.6818 32.6631C41.5382 32.7374 41.4199 32.8527 41.3421 32.9944C41.2643 33.136 41.2305 33.2976 41.2449 33.4585C41.2593 33.6195 41.3213 33.7725 41.4231 33.8981C41.5248 34.0237 41.6617 34.1162 41.8162 34.1638C41.9707 34.2114 42.136 34.2119 42.2908 34.1654C42.3927 34.136 42.4878 34.0868 42.5707 34.0206C42.6535 33.9543 42.7225 33.8724 42.7735 33.7795C42.8245 33.6865 42.8567 33.5844 42.8681 33.4791C42.8796 33.3737 42.87 33.267 42.8401 33.1653Z" fill="var(--fill-0, #112949)"/>
</g>
</svg>
